<?xml version="1.0" encoding="utf-8"?>
<!-- Generator: Adobe Illustrator 19.0.1, SVG Export Plug-In . SVG Version: 6.00 Build 0)  -->
<svg version="1.1" id="Layer_1" xmlns="http://www.w3.org/2000/svg" xmlns:xlink="http://www.w3.org/1999/xlink" x="0px" y="0px" viewBox="0 0 144 144" style="enable-background:new 0 0 144 144;" xml:space="preserve">
  <style type="text/css">
	.st0{fill:#D0D5D6;}
	.st1{fill:#A4A9AD;}
	.st2{fill:#333E48;}
	.st3{fill:#E2231A;}
	.st4{fill:#FFFFFF;}
	.st5{fill:#D1D5D7;}
	.st6{fill:#008FBE;}
	.st7{fill:#FF6C0C;}
</style>
  <g>
    <g>
      <g>
        <g>
          <g>
            <path class="st0" d="M118.3,45.3c-27,13.2-53,27.8-78.4,43.8C31.4,83.2,28.5,78,28,67.7c27-13.2,53-27.8,78.4-43.8
						C114.8,29.8,117.7,35,118.3,45.3z" />
          </g>
        </g>
        <path class="st1" d="M39.8,89.1c25.4-16,51.5-30.6,78.4-43.8c-0.4-7.2-1.9-12-5.8-16.2L29.1,75.8C30.7,81.2,33.9,85,39.8,89.1z" />
        <polygon class="st2" points="75.6,76.9 72.4,73.6 68.6,76.2 70,61.8 77,62.5 			" />
        <polygon class="st2" points="89.6,65.8 85.1,66.7 85.1,71.2 74,62 78.5,56.6 			" />
        <g>
          <polygon class="st3" points="75.4,48.4 76.9,48.3 77.8,49.5 79.3,49.9 79.7,51.3 81,52.1 81,53.6 82,54.8 81.5,56.2 82.1,57.6 
					81.2,58.9 81.3,60.4 80.1,61.3 79.7,62.7 78.3,63.2 77.5,64.5 76,64.5 74.8,65.4 73.4,65 72,65.6 70.8,64.7 69.3,64.8 
					68.4,63.6 66.9,63.2 66.4,61.8 65.2,61 65.1,59.5 64.2,58.3 64.6,56.9 64.1,55.5 64.9,54.2 64.8,52.7 66,51.8 66.4,50.4 
					67.8,49.9 68.7,48.6 70.2,48.6 71.3,47.6 72.8,48.1 74.2,47.5 				" />
        </g>
      </g>
      <g>
        <path class="st4" d="M71,60.8c-0.5,0.3-1,0.2-1.3-0.3c-0.2-0.4-0.1-1,0.4-1.2c0.5-0.3,1-0.2,1.3,0.3C71.6,59.9,71.5,60.5,71,60.8
				 M70.3,59.5C70,59.7,69.9,60,70,60.3s0.5,0.3,0.8,0.1s0.4-0.5,0.3-0.8C70.9,59.4,70.6,59.4,70.3,59.5" />
        <path class="st4" d="M74,59c-0.2,0.1-0.4,0-0.5-0.1l-0.4-0.6c-0.1-0.1-0.3-0.2-0.4-0.1c-0.2,0.1-0.2,0.3-0.1,0.4l0.5,0.9
				c-0.2,0.1-0.4,0-0.5-0.1l-0.4-0.6c-0.1-0.1-0.3-0.2-0.4-0.1c-0.2,0.1-0.2,0.3-0.1,0.4l0.4,0.6c0.1,0.2,0,0.4-0.1,0.5l-0.5-0.9
				c-0.2-0.3-0.1-0.7,0.3-0.9c0.2-0.1,0.4-0.1,0.6-0.1c0-0.2,0.2-0.3,0.3-0.4c0.3-0.2,0.7-0.1,0.9,0.2L74,59z" />
        <path class="st4" d="M75,58.4c-0.1,0-0.2,0.1-0.2,0.1c-0.2,0-0.4-0.1-0.4-0.2c0,0,0,0,0-0.1l0,0c0.1,0,0.3,0,0.5-0.1
				c0.3-0.2,0.4-0.5,0.2-0.7c-0.1-0.3-0.5-0.3-0.8-0.2C74,57.4,73.8,57.7,74,58l0.6,1c0.1,0.2,0,0.4-0.1,0.5l-0.7-1.3
				c-0.3-0.4-0.1-1,0.4-1.3c0.2-0.1,0.5-0.2,0.7-0.1c0.2,0.1,0.4,0.2,0.6,0.4C75.6,57.6,75.4,58.2,75,58.4" />
        <path class="st4" d="M76.1,55.4l-0.7,0.4l1,1.8l0,0c-0.2,0.1-0.4,0-0.5-0.1L75,56l-0.7,0.4c-0.2,0.1-0.4,0-0.5-0.1L76,55
				C76.3,55.1,76.3,55.3,76.1,55.4" />
        <path class="st4" d="M79.6,55.5l-0.4-0.3l-1.1,0.6v0.4c0,0.2-0.2,0.3-0.3,0.4l-0.2-2.4c0-0.1,0-0.3,0.1-0.3c0.1-0.1,0.2,0,0.3,0
				l2,1.4C80,55.5,79.8,55.6,79.6,55.5 M78,54.3l0.1,1.2L79,55L78,54.3L78,54.3z" />
        <path class="st4" d="M68.9,59.9c-0.3-0.1-0.6-0.1-0.8,0.1c-0.5,0.3-0.7,0.8-0.4,1.3c0.2,0.4,0.8,0.5,1.3,0.3
				c0.2-0.1,0.4-0.3,0.5-0.6c0.1-0.2,0.2-0.2,0.4-0.2c0,0.2-0.1,0.3-0.1,0.5c-0.1,0.2-0.3,0.4-0.5,0.6c-0.6,0.4-1.4,0.2-1.8-0.4
				c-0.3-0.6-0.1-1.4,0.5-1.7c0.5-0.3,1-0.3,1.4,0C69.3,59.9,69.1,60,68.9,59.9" />
        <path class="st4" d="M80.2,55.2c-0.1,0.1-0.2,0-0.2-0.1s0-0.2,0.1-0.2c0.1-0.1,0.2,0,0.2,0.1C80.3,55.1,80.3,55.2,80.2,55.2
				 M80,55c-0.1,0-0.1,0.1-0.1,0.2c0,0.1,0.1,0.1,0.2,0c0.1,0,0.1-0.1,0.1-0.2C80.2,55,80.1,54.9,80,55 M80.2,55.1L80.2,55.1
				L80.2,55.1L80.2,55.1L80.2,55.1C80.1,55.1,80.1,55.1,80.2,55.1L80.2,55.1L80.2,55.1C80.1,55.1,80.1,55.1,80.2,55.1L80.2,55.1
				C80.1,55.1,80.1,55.1,80.2,55.1C80.1,55,80.1,55,80.2,55.1C80.1,55,80.1,55,80.2,55.1L80.2,55.1L80.2,55.1
				C80.1,55.2,80.1,55.2,80.2,55.1L80.2,55.1H80l0,0H80.2C80.1,55,80.2,55,80.2,55.1C80.2,55,80.2,55,80.2,55.1" />
        <path class="st4" d="M76.3,54.8l1.1,1.8c0.1,0.2,0.3,0.2,0.5,0.1L76.8,55C76.7,54.8,76.5,54.7,76.3,54.8" />
      </g>
    </g>
    <g>
      <g>
        <path class="st4" d="M40.8,129.5v1.2l0,0c-7.3,0-14.3-2.9-19.4-8.1c-5.2-5.2-8.1-12.1-8.1-19.5c0-15.2,12.3-27.5,27.5-27.5
				c7.4,0,14.3,2.9,19.5,8.1s8.1,12.1,8.1,19.5c0,15.2-12.3,27.5-27.5,27.5v-1.2H40.8z" />
        <path class="st5" d="M40.8,76.8L40.8,76.8c14.6,0,26.4,11.8,26.4,26.4s-11.8,26.3-26.4,26.3l0,0c-14.6,0-26.4-11.8-26.3-26.4
				C14.4,88.6,26.2,76.8,40.8,76.8 M40.8,74.5L40.8,74.5L40.8,74.5c-15.8,0-28.7,12.9-28.7,28.7s12.9,28.7,28.7,28.7
				s28.7-12.9,28.7-28.7c0-7.7-3-14.9-8.4-20.3C55.6,77.4,48.4,74.5,40.8,74.5L40.8,74.5z" />
      </g>
      <g>
        <path class="st6" d="M56.4,99.5c0.6,2.5,0.6,5.1,0,7.5c-1.4,5.9-6,10.5-12,11.9c-5.9,1.4-12.1-0.6-16-5.2l2.8-2.4l-8.8-0.7l0,0
				l0,0l0,0l0,0l-0.7,8.8l3-2.6l-0.2,0.2c5.2,6.1,13.3,8.7,21.1,6.9c7.8-1.8,13.8-7.8,15.7-15.6c0.8-3.2,0.8-6.7,0-9.9L56.4,99.5z" />
        <g>
          <path class="st7" d="M56.9,89.4c-5.2-6.1-13.3-8.7-21.1-6.9C28,84.4,22,90.4,20.1,98.2c-0.8,3.2-0.8,6.7,0,9.9l5-1.2
					c-0.6-2.5-0.6-5.1,0-7.5c1.4-5.9,6-10.5,12-11.9c5.9-1.4,12.1,0.6,16,5.2L56.9,89.4z" />
          <polygon class="st7" points="59.7,87.1 54.9,91.1 50.2,95.1 59,95.8 59,95.8 				" />
        </g>
      </g>
    </g>
  </g>
</svg>