<?xml version="1.0" encoding="utf-8"?>
<!-- Generator: Adobe Illustrator 19.1.0, SVG Export Plug-In . SVG Version: 6.00 Build 0)  -->
<svg version="1.1" id="Layer_1" xmlns="http://www.w3.org/2000/svg" xmlns:xlink="http://www.w3.org/1999/xlink" x="0px" y="0px" viewBox="0 0 144 144" style="enable-background:new 0 0 144 144;" xml:space="preserve">
  <style type="text/css">
	.st0{fill:#C3C6C8;}
	.st1{fill:#FFFFFF;}
	.st2{fill:#333E48;}
	.st3{fill:#A4A9AD;}
	.st4{fill:#C9920E;}
	.st5{fill:#F7A800;}
	.st6{fill:#004D71;stroke:#333E48;stroke-width:1.0629;stroke-miterlimit:10;}
	.st7{fill:#008FBE;}
</style>
  <g>
    <path class="st0" d="M118.6,38.6H28.4c-5.5,0-10,4.5-10,10v59.1c0,5.5,4.5,10,10,10h90.2c5.5,0,10-4.5,10-10V48.6
		C128.6,43.1,124.2,38.6,118.6,38.6z" />
    <path class="st1" d="M19.3,49.5v57.6c0,5.4,4.4,9.8,9.8,9.8h88.6c5.4,0,9.8-4.4,9.8-9.8V49.5H19.3z" />
    <path class="st2" d="M83.8,45.6H63.2c-1.1,0-2-0.9-2-2c0-1.1,0.9-2,2-2h20.6c1.1,0,2,0.9,2,2C85.8,44.7,84.9,45.6,83.8,45.6z" />
    <path class="st2" d="M73.5,23.2c1.7,0,3.1,1.4,3.1,3.1c0,1.7-1.4,3.1-3.1,3.1c-1.7,0-3.1-1.4-3.1-3.1
		C70.4,24.6,71.8,23.2,73.5,23.2L73.5,23.2z M73.5,21.2c-2.8,0-5.1,2.3-5.1,5.1c0,2.8,2.3,5.1,5.1,5.1c2.8,0,5.1-2.3,5.1-5.1
		C78.6,23.5,76.3,21.2,73.5,21.2L73.5,21.2z" />
    <path class="st0" d="M79.8,17H67.2c-2.2,0-4,1.8-4,4v22.6h20.6V21C83.8,18.8,82,17,79.8,17z M73.5,31.4c-2.8,0-5.1-2.3-5.1-5.1
		c0-2.8,2.3-5.1,5.1-5.1c2.8,0,5.1,2.3,5.1,5.1C78.6,29.1,76.3,31.4,73.5,31.4z" />
    <g>
      <g>
        <path class="st2" d="M122.7,81.1c0,0,0-0.1,0-0.2c0-0.1,0-0.1,0-0.2c-0.2-0.9-0.9-1.6-1.4-2.4c-0.8-1.2,0.8-2.6,0.7-3.9
				c-0.1-0.9-1.2-1.5-1.8-2c-1.2-1-0.2-2.6-0.4-3.9c-0.1-0.9-1.2-1.3-1.9-1.6c-0.7-0.3-1.2-0.6-1.4-1.3c-0.1-0.7-0.1-1.4-0.2-2
				c-0.2-0.9-0.9-1.3-1.7-1.5c-0.6-0.1-1.3-0.2-1.8-0.5c-0.7-0.3-0.8-1.6-1-2.2c-0.3-0.8-0.9-1.3-1.7-1.3c-0.6,0-1.3,0.1-1.9,0.1
				c-1,0-1.4-0.9-1.8-1.6c-0.4-0.7-1-1.3-1.8-1.3c-0.5,0-1.1,0.2-1.6,0.4c-1.1,0.3-1.7,0.1-2.4-0.7c-0.5-0.6-1.3-1.3-2.2-1.2
				c-0.5,0.1-1,0.4-1.4,0.6c-0.3,0.2-0.5,0.3-0.8,0.5c-0.7,0.4-1.2,0-1.8-0.3c-0.7-0.4-1.6-1.1-2.5-0.7c-1.3,0.6-1.8,2.3-3.5,1.8
				c-1-0.2-1.8-0.7-2.8-0.2c-1.1,0.5-1.1,2.2-2.2,2.6c-1.1,0.4-2.2-0.3-3.3,0.3c-0.9,0.5-1,2-1.4,2.9c-0.5,1-2.4,0.7-3.3,1.3
				c-0.8,0.5-0.8,1.8-0.8,2.6c-0.1,1.6-1.5,1.7-2.6,2.4c-0.8,0.5-0.8,1.4-0.7,2.3c0.1,0.9,0.4,1.6-0.2,2.4c-0.4,0.4-0.9,0.7-1.4,1.1
				c-0.8,0.7-0.8,1.6-0.4,2.6c0.3,0.7,0.7,1.3,0.6,2.1c-0.1,0.6-0.7,1.1-1.1,1.6c-0.6,0.8-0.7,1.6-0.2,2.5c0.3,0.5,0.7,0.9,1,1.4
				c0.5,0.8,0,1.6-0.3,2.4c-0.4,0.9-0.5,1.7,0.2,2.5c0.4,0.4,0.9,0.8,1.3,1.1c0.8,0.6,0.7,1.4,0.5,2.2c-0.2,1-0.3,1.9,0.6,2.6
				c0.9,0.7,2.3,0.7,2.6,2c0.2,1.1-0.1,2.2,0.8,3c0.8,0.7,2.1,0.5,3,0.9c1,0.5,0.8,2.5,1.7,3.2c0.7,0.6,2,0.3,2.9,0.3
				c1.4,0,1.6,1.8,2.5,2.6c0.8,0.6,1.8,0.3,2.7,0c0.9-0.3,1.5-0.2,2.2,0.5c0.4,0.4,0.8,0.9,1.4,1.2c0.8,0.5,1.7,0,2.4-0.4
				c0.8-0.5,1.4-0.8,2.4-0.3c0.6,0.3,1.1,0.7,1.7,0.9c0.9,0.3,1.6-0.3,2.2-0.9c0.6-0.6,1.1-1.2,2-1.1c0.7,0.1,1.2,0.4,1.9,0.5
				c0.9,0.1,1.5-0.3,2-1c0.3-0.5,0.6-1,1-1.5c0.6-0.6,1.8-0.3,2.5-0.3c1,0,1.6-0.4,2-1.3c0.2-0.5,0.3-1,0.5-1.5
				c0.3-1,1.2-1.1,2.1-1.2c0.8-0.1,1.6-0.4,1.9-1.2c0.4-1-0.1-2.2,0.6-3.1c0.6-0.7,1.8-0.8,2.5-1.4c0.6-0.5,0.6-1.4,0.4-2.1
				c-0.1-0.7-0.4-1.4-0.1-2c0.3-0.5,1-0.9,1.4-1.3c0.6-0.5,1.1-1.1,0.9-1.9c-0.3-1.2-1.3-2.3-0.5-3.5
				C121.9,82.5,122.6,82,122.7,81.1z" />
      </g>
    </g>
    <g>
      <g>
        <path class="st3" d="M122.2,80.7c0,0,0-0.1,0-0.2c0-0.1,0-0.1,0-0.2c-0.2-0.9-0.9-1.6-1.4-2.4c-0.8-1.2,0.8-2.6,0.7-3.9
				c-0.1-0.9-1.2-1.5-1.8-2c-1.2-1-0.2-2.6-0.4-3.9c-0.1-0.9-1.2-1.3-1.9-1.6c-0.7-0.3-1.2-0.6-1.4-1.3c-0.1-0.7-0.1-1.4-0.2-2
				c-0.2-0.9-0.9-1.3-1.7-1.5c-0.6-0.1-1.3-0.2-1.8-0.5c-0.7-0.3-0.8-1.6-1-2.2c-0.3-0.8-0.9-1.3-1.7-1.3c-0.6,0-1.3,0.1-1.9,0.1
				c-1,0-1.4-0.9-1.8-1.6c-0.4-0.7-1-1.3-1.8-1.3c-0.5,0-1.1,0.2-1.6,0.4c-1.1,0.3-1.7,0.1-2.4-0.7c-0.5-0.6-1.3-1.3-2.2-1.2
				c-0.5,0.1-1,0.4-1.4,0.6c-0.3,0.2-0.5,0.3-0.8,0.5c-0.7,0.4-1.2,0-1.8-0.3c-0.7-0.4-1.6-1.1-2.5-0.7c-1.3,0.6-1.8,2.3-3.5,1.8
				c-1-0.2-1.8-0.7-2.8-0.2c-1.1,0.5-1.1,2.2-2.2,2.6c-1.1,0.4-2.2-0.3-3.3,0.3c-0.9,0.5-1,2-1.4,2.9c-0.5,1-2.4,0.7-3.3,1.3
				c-0.8,0.5-0.8,1.8-0.8,2.6c-0.1,1.6-1.5,1.7-2.6,2.4c-0.8,0.5-0.8,1.4-0.7,2.3c0.1,0.9,0.4,1.6-0.2,2.4c-0.4,0.4-0.9,0.7-1.4,1.1
				c-0.8,0.7-0.8,1.6-0.4,2.6c0.3,0.7,0.7,1.3,0.6,2.1c-0.1,0.6-0.7,1.1-1.1,1.6c-0.6,0.8-0.7,1.6-0.2,2.5c0.3,0.5,0.7,0.9,1,1.4
				c0.5,0.8,0,1.6-0.3,2.4c-0.4,0.9-0.5,1.7,0.2,2.5c0.4,0.4,0.9,0.8,1.3,1.1c0.8,0.6,0.7,1.4,0.5,2.2c-0.2,1-0.3,1.9,0.6,2.6
				c0.9,0.7,2.3,0.7,2.6,2c0.2,1.1-0.1,2.2,0.8,3c0.8,0.7,2.1,0.5,3,0.9c1,0.5,0.8,2.5,1.7,3.2c0.7,0.6,2,0.3,2.9,0.3
				c1.4,0,1.6,1.8,2.5,2.6c0.8,0.6,1.8,0.3,2.7,0c0.9-0.3,1.5-0.2,2.2,0.5c0.4,0.4,0.8,0.9,1.4,1.2c0.8,0.5,1.7,0,2.4-0.4
				c0.8-0.5,1.4-0.8,2.4-0.3c0.6,0.3,1.1,0.7,1.7,0.9c0.9,0.3,1.6-0.3,2.2-0.9c0.6-0.6,1.1-1.2,2-1.1c0.7,0.1,1.2,0.4,1.9,0.5
				c0.9,0.1,1.5-0.3,2-1c0.3-0.5,0.6-1,1-1.5c0.6-0.6,1.8-0.3,2.5-0.3c1,0,1.6-0.4,2-1.3c0.2-0.5,0.3-1,0.5-1.5
				c0.3-1,1.2-1.1,2.1-1.2c0.8-0.1,1.6-0.4,1.9-1.2c0.4-1-0.1-2.2,0.6-3.1c0.6-0.7,1.8-0.8,2.5-1.4c0.6-0.5,0.6-1.4,0.4-2.1
				c-0.1-0.7-0.4-1.4-0.1-2c0.3-0.5,1-0.9,1.4-1.3c0.6-0.5,1.1-1.1,0.9-1.9c-0.3-1.2-1.3-2.3-0.5-3.5
				C121.4,82.1,122,81.6,122.2,80.7z" />
      </g>
    </g>
    <path class="st4" d="M111.6,68C111.6,68,111.6,68,111.6,68C111.6,68,111.6,68,111.6,68C111.6,68,111.6,68,111.6,68
		c-2-0.5-4.8,1.4-6.3,2.4c-5.5,4.8-2.1,9.2-4.9,9.9c-1.9,0.2-2.4-3.8-2.4-3.8S98,75.8,98,74.9c0-0.9-0.6-1.6-1.8-1.8
		c-1.2-0.2-1.5-0.1-1.8,0.1c-0.2,0.1-0.5,0.1-0.9,0.2c-0.6,0.1-1,0.2-1.2,0.7c-0.1,0.3-0.2,1,0,1.3c0,0,0-0.6,0.5-0.5v0
		c0.2,0,1.5,0.5,1.8,0.5c0,0,0,0.1-0.1,0.4c-0.1,0.3-2,2.8-2.4,3.7c-0.3,0.8-1.2,0.9-1.2,0.9c-2.8-0.1-2-7.5-6.1-9.9
		c-2.2-1.9-5.7-2.3-5.7-2.3c0.2,0.6,2.9,3.7,2.9,3.7c-0.9-0.3-1.8,0.2-1.8,0.2c1.4,0.9,3.1,2.7,3.1,2.7c-1.4-0.5-2.1,0-2.1,0
		c1.5,1.1,2.9,2.9,2.9,2.9c-1.5,0-1.9,0.4-1.9,0.4c0.2,0.2,1.2,1,2.2,2.3c-0.4-0.1-1.1,0.9-1.1,0.9s2.2,1.1,3.9,2.5
		c1.3,1,1.9,2.5,3.6,2.8c-1.4,0-1.9,1.2-2.4,1.6c-0.5,0.4-1.1,1.5-1.1,1.5l-1.8,0.2c0.1-0.2,0.2-0.7-0.3-1.1
		c-0.5-0.3-1.5,0.8-1.7,0.1c-0.4-1.4-1.9-3.4-1.9-3.4c1.5-0.7,1.1-2.8,1.1-2.6c0,0.2-0.1,0.2-0.5,0.4c-0.5,0.2-0.7,0.5-0.7,0.5
		c-0.2-0.2-0.4-0.3-0.4-0.3c0.3-0.3,1.1-1.3,1-1.6c-0.2-0.4,0-1.2,0-1.2C81.5,80.8,81,82,81,82c0-0.3-0.3-0.8-0.5-0.9
		c-0.2-0.1-0.6-1.2-0.6-1.2c0,0.4-0.2,1.6-0.2,2.2c-0.1,0.6,0.3,1.4,0.8,1.6c0.5,0.2,0.3,0.7,0.3,0.7c0-0.2-0.8-0.7-1.4-0.9
		c-0.6-0.2-1.1-0.6-1.1-0.6s0.1,1.3,0.6,1.9c0.6,0.5,1.6,0.7,1.6,0.7c-0.2,0.1-0.3,0.5-0.3,0.5c-0.6-0.2-1.6,0-1.6,0
		c0.4,0.2,1,1.1,1,1.1c-0.3,0-0.7,0.7-0.7,0.7c1.6-0.2,2.2-1.4,2.7-1.1c1.5,1,1.8,2.6,1.8,2.6c0.2,0.2-0.3,0.5-0.4,0.9
		c-0.1,0.4,0.4,0.8,0.4,0.8c-0.1,0.6,0.8,0.8,0.8,0.8c0.6,1,1.4,0.1,1.4,0.1c0.9,0.9,0.9,2.3,1.2,2.4c1.3,0.3-0.8-3.1-0.8-3.1
		c0-0.1-0.1-0.4-0.1-0.4s1,0,1.8,0c0.8,0,0.8,0.3,1.9,0.3c1.1,0,2.7-1,2.7-1l1,0.1c0,0.6,0.3,1.1,0.3,1.1c-2.3,1.9-2.4,3.3-2.4,3.3
		C91.2,94.3,92,94,92,94c-0.5,0.9-0.4,1.6-0.4,1.6c0.6-0.1,1.1-0.6,1.1-0.6c-0.3,0.7,0,1.5,0,1.5c0.6-0.3,1.1-0.7,1.1-0.7
		c-0.1,0.7,0.2,1.4,0.2,1.4c0.5-0.1,1-0.6,1-0.6c0.1,0.6,0.6,0.9,0.6,0.9c0.3-0.2,0.5-1,0.5-1c0.2,0.5,0.9,0.9,0.9,0.9
		c0.3-0.5,0.3-1.4,0.3-1.4c0.4,0.6,1,0.7,1,0.7c0.4-0.6,0-1.7,0-1.7c0.6,0.8,1.1,0.7,1.1,0.7c0.2-0.5-0.3-1.6-0.3-1.6
		c0.5,0.5,1.1,0.4,1.1,0.4c0.2-1.5-2.4-3.5-2.4-3.5c0.4-0.4,0.2-1.1,0.2-1.1l0.9,0c0.2,0.2,1.4,0.9,2.7,1c1.3,0.1,2.1-0.5,2.1-0.5
		h1.6c-0.1,0.3,0,0.6,0,0.6l0.1,0.1l-1,1.5l-0.4-0.1l-1.6,1.2l1.8,1.5l0.9-1.9l-0.2-0.4l0.9-1.5l0.3,0.3c0,0,0.3,0.1,0.6,0
		c0.3-0.1,0.2-0.5,0.2-0.5s0.4,0.2,0.6-0.1c0.3-0.4,0.1-0.7,0.1-0.7s0.3-0.1,0.4-0.3c0.2-0.2-0.1-0.9-0.1-0.9l-0.9-0.4l2.4-3.9
		l0.3,0.4l0.3-2.4l-1.5,1.8l0.5-0.1l-2.4,3.9l-0.1,0c-0.7-0.4-1.2-0.3-1.4,0c-0.2,0.3,0,0.9,0,0.9l-1.8-0.2c-0.3-1.2-3.1-3-3.2-3
		c0.9-0.1,1.9-1.6,3.4-2.6c2.3-1.4,3.7-2.8,3.7-2.8s-0.8-0.9-1.1-0.9c0.9-1.4,2-2.1,2.2-2.3c0,0-0.4-0.5-1.9-0.4
		c0,0,1.4-1.7,2.9-2.9c0,0-0.7-0.5-2.1,0c0,0,1.8-1.8,3.1-2.7c0,0-0.9-0.5-1.8-0.2C108.7,71.6,111.4,68.6,111.6,68
		C111.6,68,111.6,68,111.6,68z" />
    <path class="st5" d="M111.3,67.7C111.3,67.7,111.3,67.7,111.3,67.7C111.3,67.7,111.3,67.7,111.3,67.7
		C111.3,67.7,111.3,67.7,111.3,67.7c-2-0.5-4.8,1.4-6.3,2.4c-5.5,4.8-2.1,9.2-4.9,9.9c-1.9,0.2-2.4-3.8-2.4-3.8s-0.1-0.7-0.1-1.6
		c0-0.9-0.6-1.6-1.8-1.8c-1.2-0.2-1.5-0.1-1.8,0.1c-0.2,0.1-0.5,0.1-0.9,0.2c-0.6,0.1-1,0.2-1.2,0.7c-0.1,0.3-0.2,1,0,1.3
		c0,0,0-0.6,0.5-0.5v0c0.2,0,1.5,0.5,1.8,0.5c0,0,0,0.1-0.1,0.4c-0.1,0.3-2,2.8-2.4,3.7C91.5,80,90.7,80,90.7,80
		c-2.8-0.1-2-7.5-6.1-9.9c-2.2-1.9-5.7-2.3-5.7-2.3c0.2,0.6,2.9,3.7,2.9,3.7c-0.9-0.3-1.8,0.2-1.8,0.2c1.4,0.9,3.1,2.7,3.1,2.7
		c-1.4-0.5-2.1,0-2.1,0c1.5,1.1,2.9,2.9,2.9,2.9c-1.5,0-1.9,0.4-1.9,0.4c0.2,0.2,1.2,1,2.2,2.3c-0.4-0.1-1.1,0.9-1.1,0.9
		s2.2,1.1,3.9,2.5c1.3,1,1.9,2.5,3.6,2.8c-1.4,0-1.9,1.2-2.4,1.6c-0.5,0.4-1.1,1.5-1.1,1.5l-1.8,0.2c0.1-0.2,0.2-0.7-0.3-1.1
		c-0.5-0.3-1.5,0.8-1.7,0.1c-0.4-1.4-1.9-3.4-1.9-3.4c1.5-0.7,1.1-2.8,1.1-2.6c0,0.2-0.1,0.2-0.5,0.4c-0.5,0.2-0.7,0.5-0.7,0.5
		c-0.2-0.2-0.4-0.3-0.4-0.3c0.3-0.3,1.1-1.3,1-1.6c-0.2-0.4,0-1.2,0-1.2c-0.6,0.1-1.1,1.3-1.1,1.3c0-0.3-0.3-0.8-0.5-0.9
		c-0.2-0.1-0.6-1.2-0.6-1.2c0,0.4-0.2,1.6-0.2,2.2c-0.1,0.6,0.3,1.4,0.8,1.6c0.5,0.2,0.3,0.7,0.3,0.7c0-0.2-0.8-0.7-1.4-0.9
		c-0.6-0.2-1.1-0.6-1.1-0.6s0.1,1.3,0.6,1.9c0.6,0.5,1.6,0.7,1.6,0.7c-0.2,0.1-0.3,0.5-0.3,0.5c-0.6-0.2-1.6,0-1.6,0
		c0.4,0.2,1,1.1,1,1.1c-0.3,0-0.7,0.7-0.7,0.7c1.6-0.2,2.2-1.4,2.7-1.1c1.5,1,1.8,2.6,1.8,2.6c0.2,0.2-0.3,0.5-0.4,0.9
		c-0.1,0.4,0.4,0.8,0.4,0.8c-0.1,0.6,0.8,0.8,0.8,0.8c0.6,1,1.4,0.1,1.4,0.1c0.9,0.9,0.9,2.3,1.2,2.4c1.3,0.3-0.8-3.1-0.8-3.1
		c0-0.1-0.1-0.4-0.1-0.4s1,0,1.8,0c0.8,0,0.8,0.3,1.9,0.3c1.1,0,2.7-1,2.7-1l1,0.1c0,0.6,0.3,1.1,0.3,1.1c-2.3,1.9-2.4,3.3-2.4,3.3
		c0.4,0.1,1.1-0.3,1.1-0.3c-0.5,0.9-0.4,1.6-0.4,1.6c0.6-0.1,1.1-0.6,1.1-0.6c-0.3,0.7,0,1.5,0,1.5c0.6-0.3,1.1-0.7,1.1-0.7
		c-0.1,0.7,0.2,1.4,0.2,1.4c0.5-0.1,1-0.6,1-0.6c0.1,0.6,0.6,0.9,0.6,0.9c0.3-0.2,0.5-1,0.5-1c0.2,0.5,0.9,0.9,0.9,0.9
		c0.3-0.5,0.3-1.4,0.3-1.4c0.4,0.6,1,0.7,1,0.7c0.4-0.6,0-1.7,0-1.7c0.6,0.8,1.1,0.7,1.1,0.7c0.2-0.5-0.3-1.6-0.3-1.6
		c0.5,0.5,1.1,0.4,1.1,0.4c0.2-1.5-2.4-3.5-2.4-3.5c0.4-0.4,0.2-1.1,0.2-1.1l0.9,0c0.2,0.2,1.4,0.9,2.7,1c1.3,0.1,2.1-0.5,2.1-0.5
		h1.6c-0.1,0.3,0,0.6,0,0.6l0.1,0.1l-1,1.5l-0.4-0.1l-1.6,1.2l1.8,1.5l0.9-1.9l-0.2-0.4l0.9-1.5l0.3,0.3c0,0,0.3,0.1,0.6,0
		c0.3-0.1,0.2-0.5,0.2-0.5s0.4,0.2,0.6-0.1c0.3-0.4,0.1-0.7,0.1-0.7s0.3-0.1,0.4-0.3c0.2-0.2-0.1-0.9-0.1-0.9l-0.9-0.4l2.4-3.9
		l0.3,0.4l0.3-2.4l-1.5,1.8l0.5-0.1l-2.4,3.9l-0.1,0c-0.7-0.4-1.2-0.3-1.4,0c-0.2,0.3,0,0.9,0,0.9l-1.8-0.2c-0.3-1.2-3.1-3-3.2-3
		c0.9-0.1,1.9-1.6,3.4-2.6c2.3-1.4,3.7-2.8,3.7-2.8s-0.8-0.9-1.1-0.9c0.9-1.4,2-2.1,2.2-2.3c0,0-0.4-0.5-1.9-0.4
		c0,0,1.4-1.7,2.9-2.9c0,0-0.7-0.5-2.1,0c0,0,1.8-1.8,3.1-2.7c0,0-0.9-0.5-1.8-0.2C108.4,71.4,111.1,68.3,111.3,67.7
		C111.3,67.7,111.3,67.7,111.3,67.7z" />
    <path class="st6" d="M63.5,52.6H28.4c-3.3,0-6,2.7-6,6v33.6h41.1V52.6z" />
    <rect x="22.4" y="105.4" class="st2" width="41.7" height="4.1" />
    <rect x="22.4" y="97.9" class="st2" width="41.7" height="4" />
    <g>
      <path class="st7" d="M23.1,91.9c0-1.3,0.9-2.2,1.9-2.9c2.6-1.7,5.6-2.9,8.5-4.1c0.7-0.3,1.5-0.6,2.2-0.9c0.3-0.1,0.4-0.3,0.5-0.6
			c0.2-0.6,0.5-1.2,0.6-1.9c0-0.3,0.3-0.6,0.7-0.6c0.3,0,0.4-0.2,0.4-0.4c0.1-0.9,0.1-1.8,0.3-2.7c0.1-0.2-0.1-0.3-0.2-0.5
			c-0.8-0.8-1.2-1.8-1.4-3c-0.1-0.6-0.2-1.1-0.6-1.6c-0.5-0.7-0.5-1.6-0.6-2.4c0-0.4,0-0.7-0.1-1.1c-0.1-0.3,0-0.6,0.3-0.6
			c0.5-0.1,0.4-0.4,0.4-0.7c0-1.6,0-3.3,0-4.9c-0.1-2.1,1-3.5,2.7-4.7c2.8-2,9.2-1.3,9-1.3c-1,0.1-0.6,1-0.2,1.3
			c1.4,0.8,2,1.4,2.8,2.8c0.1,0.3,0.2,0.5,0.2,0.8c0.1,2,0.1,3.9,0.1,5.9c0,0.4-0.1,0.8,0.4,1c0.2,0.1,0.1,0.3,0.1,0.5
			c0,1.4-0.1,2.8-0.9,4.1c-0.3,0.5-0.4,1.3-0.6,1.9c-0.2,0.7-0.4,1.4-1,1.9c-0.2,0.2-0.2,0.4-0.2,0.7c0,0.9,0,1.7,0,2.6
			c0,0.3,0.1,0.5,0.4,0.6c0.3,0.1,0.5,0.4,0.5,0.6c0,0.8,0.5,1.5,0.7,2.2c0,0.2,0.2,0.2,0.3,0.3c1.2,0.5,2.4,1,3.7,1.5
			c1.3,0.5,2.7,1.1,4,1.7c1.1,0.5,2.3,1,3.3,1.7c1,0.7,1.8,1.7,2,3C50,91.9,36.6,91.9,23.1,91.9z" />
    </g>
  </g>
</svg>