<?xml version="1.0" encoding="utf-8"?>
<!-- Generator: Adobe Illustrator 19.1.0, SVG Export Plug-In . SVG Version: 6.00 Build 0)  -->
<svg version="1.1" id="Layer_1" xmlns="http://www.w3.org/2000/svg" xmlns:xlink="http://www.w3.org/1999/xlink" x="0px" y="0px" viewBox="0 0 72 72" style="enable-background:new 0 0 72 72;" xml:space="preserve">
  <style type="text/css">
	.st0{fill:#D0D5D6;}
	.st1{fill:#F5F6F7;stroke:#D1D5D7;stroke-width:0.8269;stroke-linecap:round;stroke-linejoin:round;stroke-miterlimit:10;}
	.st2{fill:#FF6C0C;}
	.st3{fill:#C2531A;}
	.st4{opacity:0.2;fill:#5C6670;}
	.st5{fill:#333E48;}
	.st6{fill:#A4A9AD;}
	.st7{fill:#F7A800;}
	.st8{fill:#C9920E;}
	.st9{fill:#364A5E;}
	.st10{fill:#293B4D;}
	.st11{fill:#5C6670;}
	.st12{fill:#63A70A;}
	.st13{fill:#FFFFFF;}
	.st14{fill-rule:evenodd;clip-rule:evenodd;fill:#FF6C0C;}
	.st15{fill:#008FBE;}
	.st16{fill:#004D71;}
	.st17{fill:#F5F6F7;stroke:#D1D5D7;stroke-width:0.8644;stroke-linecap:round;stroke-linejoin:round;stroke-miterlimit:10;}
	.st18{fill:none;stroke:#A4A9AD;stroke-width:0.7396;stroke-miterlimit:10;}
	.st19{fill:none;stroke:#A4A9AD;stroke-width:0.6358;stroke-miterlimit:10;}
	.st20{fill:none;stroke:#A4A9AD;stroke-width:0.6008;stroke-miterlimit:10;}
	.st21{fill:#B34FC5;}
	.st22{fill:#732282;}
	.st23{fill:#C4D600;}
	.st24{fill-rule:evenodd;clip-rule:evenodd;fill:#B34FC5;}
	.st25{fill-rule:evenodd;clip-rule:evenodd;fill:#732282;}
	.st26{fill:#E2231A;}
	.st27{fill:#D1D5D7;}
	.st28{fill:#C3C6C8;}
</style>
  <g>
    <circle class="st12" cx="34.1" cy="36.2" r="29.7" />
    <g>
      <g>
        <path class="st13" d="M53.3,35.1c-5.4,1.5-10.9,2.3-16.4,2.5V39c0,0.5-0.4,0.8-0.8,0.8h-3.9c-0.5,0-0.8-0.4-0.8-0.8v-1.4
				c-5.5-0.2-11.1-1-16.4-2.5c-0.3-0.1-0.5-0.2-0.7-0.4v16.5c0,0.8,0.7,1.5,1.5,1.5h36.9c0.8,0,1.5-0.7,1.5-1.5V34.7
				C53.8,34.9,53.6,35,53.3,35.1z" />
        <path class="st13" d="M32.9,38.9c-0.3,0-0.5-0.2-0.5-0.5v-2.6c0-0.3,0.2-0.5,0.5-0.5h2.5c0.3,0,0.5,0.2,0.5,0.5v2.6
				c0,0.3-0.2,0.5-0.5,0.5H32.9z" />
        <path class="st13" d="M53.3,24h-9.8v-2.1c0-0.4-0.3-0.7-0.6-0.8c0,0-0.1,0-0.2-0.1c-7.1-1.9-10-1.9-17.1,0c-0.1,0-0.1,0-0.2,0.1
				c-0.3,0.1-0.6,0.4-0.6,0.8V24H15c-0.8,0-1.5,0.7-1.5,1.5v6.8c0,0.5,0.3,1.1,0.7,1.5c0.2,0.2,0.5,0.3,0.7,0.4
				c5.4,1.5,10.9,2.3,16.4,2.5v-1.5c0-0.5,0.4-0.8,0.8-0.8H36c0.5,0,0.8,0.4,0.8,0.8v1.5c5.5-0.2,11.1-1,16.4-2.5
				c0.3-0.1,0.5-0.2,0.7-0.4c0.4-0.4,0.7-0.9,0.7-1.5v-6.8C54.8,24.7,54.1,24,53.3,24z M26.7,24v-1.2c6.4-1.6,8.4-1.6,14.8,0V24
				H26.7z" />
      </g>
    </g>
  </g>
</svg>