<?xml version="1.0" encoding="utf-8"?>
<!-- Generator: Adobe Illustrator 19.1.0, SVG Export Plug-In . SVG Version: 6.00 Build 0)  -->
<svg version="1.1" id="Layer_1" xmlns="http://www.w3.org/2000/svg" xmlns:xlink="http://www.w3.org/1999/xlink" x="0px" y="0px" viewBox="0 0 72 72" style="enable-background:new 0 0 72 72;" xml:space="preserve">
  <style type="text/css">
	.st0{fill:#D0D5D6;}
	.st1{fill:#F5F6F7;stroke:#D1D5D7;stroke-width:0.8269;stroke-linecap:round;stroke-linejoin:round;stroke-miterlimit:10;}
	.st2{fill:#FF6C0C;}
	.st3{fill:#C2531A;}
	.st4{opacity:0.2;fill:#5C6670;}
	.st5{fill:#333E48;}
	.st6{fill:#A4A9AD;}
	.st7{fill:#F7A800;}
	.st8{fill:#C9920E;}
	.st9{fill:#364A5E;}
	.st10{fill:#293B4D;}
	.st11{fill:#5C6670;}
	.st12{fill:#63A70A;}
	.st13{fill:#FFFFFF;}
	.st14{fill-rule:evenodd;clip-rule:evenodd;fill:#FF6C0C;}
	.st15{fill:#008FBE;}
	.st16{fill:#004D71;}
	.st17{fill:#F5F6F7;stroke:#D1D5D7;stroke-width:0.8644;stroke-linecap:round;stroke-linejoin:round;stroke-miterlimit:10;}
	.st18{fill:none;stroke:#A4A9AD;stroke-width:0.7396;stroke-miterlimit:10;}
	.st19{fill:none;stroke:#A4A9AD;stroke-width:0.6358;stroke-miterlimit:10;}
	.st20{fill:none;stroke:#A4A9AD;stroke-width:0.6008;stroke-miterlimit:10;}
	.st21{fill:#B34FC5;}
	.st22{fill:#732282;}
	.st23{fill:#C4D600;}
	.st24{fill-rule:evenodd;clip-rule:evenodd;fill:#B34FC5;}
	.st25{fill-rule:evenodd;clip-rule:evenodd;fill:#732282;}
	.st26{fill:#E2231A;}
	.st27{fill:#D1D5D7;}
	.st28{fill:#C3C6C8;}
</style>
  <g>
    <g>
      <g>
        <g>
          <g>
            <path class="st0" d="M60.7,18.6c-14.6,7.2-28.7,15.1-42.5,23.7c-4.6-3.2-6.2-6-6.5-11.6C26.3,23.6,40.4,15.7,54.2,7
						C58.8,10.2,60.4,13,60.7,18.6z" />
          </g>
        </g>
        <path class="st6" d="M18.2,42.4c13.8-8.7,27.9-16.6,42.5-23.7c-0.2-3.9-1.1-6.5-3.1-8.8L12.3,35.1C13.2,38.1,14.9,40.1,18.2,42.4
				z" />
        <polygon class="st5" points="37.5,35.7 35.8,33.9 33.8,35.4 34.5,27.6 38.3,28 			" />
        <polygon class="st5" points="45.1,29.7 42.7,30.2 42.7,32.6 36.7,27.6 39.1,24.7 			" />
        <g>
          <polygon class="st26" points="37.4,20.3 38.3,20.2 38.7,20.9 39.5,21.1 39.8,21.9 40.5,22.3 40.5,23.1 41,23.8 40.8,24.5 
					41.1,25.3 40.6,26 40.7,26.8 40,27.3 39.8,28.1 39,28.3 38.6,29 37.8,29 37.1,29.5 36.4,29.3 35.6,29.6 34.9,29.1 34.1,29.2 
					33.6,28.5 32.8,28.3 32.6,27.6 31.9,27.1 31.9,26.3 31.4,25.7 31.6,24.9 31.3,24.1 31.8,23.5 31.7,22.6 32.4,22.2 32.6,21.4 
					33.3,21.1 33.8,20.4 34.6,20.4 35.2,19.9 36,20.1 36.8,19.8 				" />
        </g>
      </g>
      <g>
        <path class="st13" d="M35.1,27c-0.3,0.1-0.6,0.1-0.7-0.1c-0.1-0.2,0-0.5,0.2-0.7s0.6-0.1,0.7,0.1C35.4,26.6,35.3,26.8,35.1,27
				 M34.7,26.3c-0.2,0.1-0.2,0.3-0.1,0.4c0.1,0.1,0.3,0.2,0.4,0.1c0.2-0.1,0.2-0.3,0.1-0.4C35,26.3,34.8,26.2,34.7,26.3" />
        <path class="st13" d="M36.7,26c-0.1,0.1-0.2,0-0.3-0.1l-0.2-0.3c0-0.1-0.2-0.1-0.2-0.1c-0.1,0.1-0.1,0.2-0.1,0.2l0.3,0.5
				c-0.1,0.1-0.2,0-0.3-0.1l-0.2-0.3c0-0.1-0.2-0.1-0.2-0.1c-0.1,0.1-0.1,0.2-0.1,0.2l0.2,0.3c0.1,0.1,0,0.2-0.1,0.3l-0.3-0.5
				c-0.1-0.2,0-0.4,0.1-0.5c0.1-0.1,0.2-0.1,0.3,0c0-0.1,0.1-0.2,0.2-0.2c0.2-0.1,0.4,0,0.5,0.1L36.7,26z" />
        <path class="st13" d="M37.2,25.7c0,0-0.1,0-0.1,0.1c-0.1,0-0.2,0-0.2-0.1c0,0,0,0,0,0l0,0c0.1,0,0.2,0,0.3-0.1
				c0.2-0.1,0.2-0.3,0.1-0.4C37.2,25,37,25,36.8,25.1c-0.1,0.1-0.2,0.2-0.1,0.4L37,26c0.1,0.1,0,0.2-0.1,0.3l-0.4-0.7
				c-0.1-0.2-0.1-0.5,0.2-0.7c0.1-0.1,0.2-0.1,0.4-0.1c0.1,0,0.2,0.1,0.3,0.2C37.5,25.3,37.5,25.6,37.2,25.7" />
        <path class="st13" d="M37.8,24.1l-0.4,0.2l0.6,1l0,0c-0.1,0.1-0.2,0-0.3-0.1l-0.5-0.8l-0.4,0.2c-0.1,0.1-0.2,0-0.3-0.1l1.2-0.7
				C37.9,23.9,37.9,24,37.8,24.1" />
        <path class="st13" d="M39.7,24.1L39.5,24L39,24.3l0,0.2c0,0.1-0.1,0.2-0.2,0.2l-0.1-1.3c0-0.1,0-0.1,0.1-0.2c0.1,0,0.1,0,0.2,0
				l1.1,0.8C39.9,24.2,39.8,24.2,39.7,24.1 M38.9,23.5l0.1,0.7l0.4-0.3L38.9,23.5L38.9,23.5z" />
        <path class="st13" d="M33.9,26.5c-0.1,0-0.3,0-0.5,0.1c-0.3,0.1-0.4,0.5-0.2,0.7c0.1,0.2,0.4,0.3,0.7,0.1
				c0.1-0.1,0.2-0.2,0.3-0.3c0-0.1,0.1-0.1,0.2-0.1c0,0.1,0,0.2-0.1,0.3c-0.1,0.1-0.2,0.2-0.3,0.3c-0.3,0.2-0.8,0.1-1-0.2
				c-0.2-0.3-0.1-0.7,0.3-0.9c0.2-0.1,0.5-0.1,0.8,0C34.1,26.5,34,26.6,33.9,26.5" />
        <path class="st13" d="M40,24c0,0-0.1,0-0.1,0c0,0,0-0.1,0-0.1s0.1,0,0.1,0C40.1,23.9,40.1,24,40,24 M40,23.9c0,0-0.1,0.1,0,0.1
				c0,0,0.1,0,0.1,0c0,0,0.1-0.1,0-0.1C40,23.9,40,23.8,40,23.9 M40,23.9C40,23.9,40,23.9,40,23.9C40,23.9,40,23.9,40,23.9L40,23.9
				C40.1,23.9,40,24,40,23.9C40,23.9,40,23.9,40,23.9L40,23.9L40,23.9C40,23.9,40,23.9,40,23.9L40,23.9C40,23.9,40,23.9,40,23.9
				C40,23.9,40,23.9,40,23.9C40,23.9,40,23.9,40,23.9L40,23.9L40,23.9C40,24,40,24,40,23.9L40,23.9L40,23.9
				C39.9,23.9,39.9,23.9,40,23.9L40,23.9C40,23.9,40,23.9,40,23.9C40,23.9,40,23.9,40,23.9" />
        <path class="st13" d="M37.9,23.8l0.6,1c0.1,0.1,0.2,0.1,0.3,0.1l-0.6-1C38.1,23.8,38,23.7,37.9,23.8" />
      </g>
    </g>
    <g>
      <g>
        <g>
          <g>
            <path class="st0" d="M64.6,29.9C49.9,37.1,35.8,44.9,22,53.6c-4.6-3.2-6.2-6-6.5-11.6C30.2,34.9,44.3,27,58.1,18.3
						C62.7,21.5,64.3,24.3,64.6,29.9z" />
          </g>
        </g>
        <path class="st6" d="M22,53.6c13.8-8.7,27.9-16.6,42.5-23.7c-0.2-3.9-1.1-6.5-3.1-8.8L16.2,46.4C17.1,49.3,18.8,51.4,22,53.6z" />
        <polygon class="st5" points="41.4,47 39.7,45.2 37.6,46.6 38.4,38.8 42.2,39.2 			" />
        <polygon class="st5" points="49,41 46.6,41.5 46.6,43.9 40.6,38.9 43,36 			" />
        <g>
          <polygon class="st26" points="41.3,31.5 42.1,31.5 42.6,32.1 43.4,32.4 43.7,33.1 44.4,33.6 44.4,34.4 44.9,35 44.7,35.8 
					44.9,36.5 44.5,37.2 44.5,38 43.9,38.5 43.7,39.3 42.9,39.6 42.5,40.3 41.6,40.3 41,40.8 40.2,40.6 39.5,40.9 38.8,40.4 
					38,40.4 37.5,39.8 36.7,39.6 36.5,38.8 35.8,38.4 35.8,37.5 35.2,36.9 35.5,36.1 35.2,35.4 35.6,34.7 35.6,33.9 36.2,33.4 
					36.5,32.6 37.2,32.4 37.7,31.7 38.5,31.7 39.1,31.1 39.9,31.4 40.6,31.1 				" />
        </g>
      </g>
      <g>
        <path class="st13" d="M38.9,38.2c-0.3,0.1-0.6,0.1-0.7-0.1c-0.1-0.2,0-0.5,0.2-0.7s0.6-0.1,0.7,0.1
				C39.3,37.8,39.2,38.1,38.9,38.2 M38.5,37.6c-0.2,0.1-0.2,0.3-0.1,0.4c0.1,0.1,0.3,0.2,0.4,0.1c0.2-0.1,0.2-0.3,0.1-0.4
				C38.9,37.5,38.7,37.5,38.5,37.6" />
        <path class="st13" d="M40.5,37.3c-0.1,0.1-0.2,0-0.3-0.1l-0.2-0.3c0-0.1-0.2-0.1-0.2-0.1c-0.1,0.1-0.1,0.2-0.1,0.2l0.3,0.5
				c-0.1,0.1-0.2,0-0.3-0.1l-0.2-0.3c0-0.1-0.2-0.1-0.2-0.1c-0.1,0.1-0.1,0.2-0.1,0.2l0.2,0.3c0.1,0.1,0,0.2-0.1,0.3l-0.3-0.5
				c-0.1-0.2,0-0.4,0.1-0.5c0.1-0.1,0.2-0.1,0.3,0c0-0.1,0.1-0.2,0.2-0.2c0.2-0.1,0.4,0,0.5,0.1L40.5,37.3z" />
        <path class="st13" d="M41.1,37c0,0-0.1,0-0.1,0.1c-0.1,0-0.2,0-0.2-0.1c0,0,0,0,0,0l0,0c0.1,0,0.2,0,0.3-0.1
				c0.2-0.1,0.2-0.3,0.1-0.4c-0.1-0.1-0.3-0.2-0.4-0.1c-0.1,0.1-0.2,0.2-0.1,0.4l0.3,0.5c0.1,0.1,0,0.2-0.1,0.3l-0.4-0.7
				c-0.1-0.2-0.1-0.5,0.2-0.7c0.1-0.1,0.2-0.1,0.4-0.1c0.1,0,0.2,0.1,0.3,0.2C41.4,36.6,41.3,36.8,41.1,37" />
        <path class="st13" d="M41.7,35.3l-0.4,0.2l0.6,1l0,0c-0.1,0.1-0.2,0-0.3-0.1l-0.5-0.8l-0.4,0.2c-0.1,0.1-0.2,0-0.3-0.1l1.2-0.7
				C41.8,35.2,41.8,35.3,41.7,35.3" />
        <path class="st13" d="M43.6,35.4l-0.2-0.1l-0.6,0.3l0,0.2c0,0.1-0.1,0.2-0.2,0.2l-0.1-1.3c0-0.1,0-0.1,0.1-0.2c0.1,0,0.1,0,0.2,0
				l1.1,0.8C43.8,35.4,43.7,35.4,43.6,35.4 M42.7,34.7l0.1,0.7l0.4-0.3L42.7,34.7L42.7,34.7z" />
        <path class="st13" d="M37.8,37.8c-0.1,0-0.3,0-0.5,0.1c-0.3,0.1-0.4,0.5-0.2,0.7c0.1,0.2,0.4,0.3,0.7,0.1
				c0.1-0.1,0.2-0.2,0.3-0.3c0-0.1,0.1-0.1,0.2-0.1c0,0.1,0,0.2-0.1,0.3c-0.1,0.1-0.2,0.2-0.3,0.3c-0.3,0.2-0.8,0.1-1-0.2
				c-0.2-0.3-0.1-0.7,0.3-0.9c0.2-0.1,0.5-0.1,0.8,0C38,37.8,37.9,37.8,37.8,37.8" />
        <path class="st13" d="M43.9,35.3c0,0-0.1,0-0.1,0c0,0,0-0.1,0-0.1c0,0,0.1,0,0.1,0C44,35.2,44,35.2,43.9,35.3 M43.8,35.1
				c0,0-0.1,0.1,0,0.1c0,0,0.1,0,0.1,0c0,0,0.1-0.1,0-0.1C43.9,35.1,43.9,35.1,43.8,35.1 M43.9,35.2C43.9,35.2,43.9,35.2,43.9,35.2
				C43.9,35.2,43.9,35.2,43.9,35.2L43.9,35.2C43.9,35.2,43.9,35.2,43.9,35.2C43.9,35.2,43.9,35.2,43.9,35.2L43.9,35.2L43.9,35.2
				C43.8,35.2,43.9,35.2,43.9,35.2L43.9,35.2C43.9,35.2,43.9,35.2,43.9,35.2C43.9,35.1,43.9,35.1,43.9,35.2
				C43.9,35.1,43.9,35.1,43.9,35.2L43.9,35.2L43.9,35.2C43.9,35.2,43.9,35.2,43.9,35.2L43.9,35.2L43.9,35.2
				C43.8,35.2,43.8,35.2,43.9,35.2L43.9,35.2C43.9,35.1,43.9,35.1,43.9,35.2C43.9,35.1,43.9,35.2,43.9,35.2" />
        <path class="st13" d="M41.8,35l0.6,1c0.1,0.1,0.2,0.1,0.3,0.1l-0.6-1C42,35,41.9,35,41.8,35" />
      </g>
    </g>
    <g>
      <g>
        <g>
          <g>
            <path class="st0" d="M68.6,41C54,48.1,39.9,56,26.1,64.7c-4.6-3.2-6.2-6-6.5-11.6c14.6-7.2,28.7-15.1,42.5-23.7
						C66.7,32.5,68.3,35.4,68.6,41z" />
          </g>
        </g>
        <path class="st6" d="M26.1,64.7C39.9,56,54,48.1,68.6,41c-0.2-3.9-1.1-6.5-3.1-8.8L20.3,57.4C21.1,60.4,22.9,62.5,26.1,64.7z" />
        <polygon class="st5" points="45.5,58.1 43.7,56.3 41.7,57.7 42.5,49.9 46.2,50.3 			" />
        <polygon class="st5" points="53.1,52.1 50.7,52.5 50.6,55 44.6,50 47,47 			" />
        <g>
          <polygon class="st26" points="45.4,42.6 46.2,42.6 46.7,43.2 47.5,43.4 47.7,44.2 48.4,44.6 48.4,45.4 48.9,46.1 48.7,46.9 
					49,47.6 48.5,48.3 48.6,49.1 47.9,49.6 47.7,50.4 47,50.6 46.5,51.3 45.7,51.3 45.1,51.9 44.3,51.6 43.5,51.9 42.9,51.5 
					42.1,51.5 41.6,50.8 40.8,50.6 40.5,49.9 39.8,49.4 39.8,48.6 39.3,48 39.5,47.2 39.2,46.4 39.7,45.8 39.7,45 40.3,44.5 
					40.5,43.7 41.3,43.4 41.7,42.7 42.5,42.7 43.2,42.2 43.9,42.4 44.7,42.1 				" />
        </g>
      </g>
      <g>
        <path class="st13" d="M43,49.3c-0.3,0.1-0.6,0.1-0.7-0.1c-0.1-0.2,0-0.5,0.2-0.7c0.3-0.1,0.6-0.1,0.7,0.1
				C43.3,48.9,43.2,49.2,43,49.3 M42.6,48.7c-0.2,0.1-0.2,0.3-0.1,0.4c0.1,0.1,0.3,0.2,0.4,0.1s0.2-0.3,0.1-0.4
				C43,48.6,42.8,48.6,42.6,48.7" />
        <path class="st13" d="M44.6,48.4c-0.1,0.1-0.2,0-0.3-0.1L44.1,48c0-0.1-0.2-0.1-0.2-0.1c-0.1,0.1-0.1,0.2-0.1,0.2l0.3,0.5
				c-0.1,0.1-0.2,0-0.3-0.1l-0.2-0.3c0-0.1-0.2-0.1-0.2-0.1c-0.1,0.1-0.1,0.2-0.1,0.2l0.2,0.3c0.1,0.1,0,0.2-0.1,0.3l-0.3-0.5
				c-0.1-0.2,0-0.4,0.1-0.5c0.1-0.1,0.2-0.1,0.3,0c0-0.1,0.1-0.2,0.2-0.2c0.2-0.1,0.4,0,0.5,0.1L44.6,48.4z" />
        <path class="st13" d="M45.1,48.1c0,0-0.1,0-0.1,0.1c-0.1,0-0.2,0-0.2-0.1c0,0,0,0,0,0l0,0c0.1,0,0.2,0,0.3-0.1
				c0.2-0.1,0.2-0.3,0.1-0.4c-0.1-0.1-0.3-0.2-0.4-0.1c-0.1,0.1-0.2,0.2-0.1,0.4l0.3,0.5c0.1,0.1,0,0.2-0.1,0.3l-0.4-0.7
				c-0.1-0.2-0.1-0.5,0.2-0.7c0.1-0.1,0.2-0.1,0.4-0.1c0.1,0,0.2,0.1,0.3,0.2C45.5,47.6,45.4,47.9,45.1,48.1" />
        <path class="st13" d="M45.7,46.4l-0.4,0.2l0.6,1l0,0c-0.1,0.1-0.2,0-0.3-0.1l-0.5-0.8l-0.4,0.2c-0.1,0.1-0.2,0-0.3-0.1l1.2-0.7
				C45.9,46.2,45.8,46.3,45.7,46.4" />
        <path class="st13" d="M47.7,46.4l-0.2-0.1l-0.6,0.3l0,0.2c0,0.1-0.1,0.2-0.2,0.2l-0.1-1.3c0-0.1,0-0.1,0.1-0.2c0.1,0,0.1,0,0.2,0
				l1.1,0.8C47.9,46.5,47.7,46.5,47.7,46.4 M46.8,45.8l0.1,0.7l0.4-0.3L46.8,45.8L46.8,45.8z" />
        <path class="st13" d="M41.9,48.9c-0.1,0-0.3,0-0.5,0.1c-0.3,0.1-0.4,0.5-0.2,0.7c0.1,0.2,0.4,0.3,0.7,0.1
				c0.1-0.1,0.2-0.2,0.3-0.3c0-0.1,0.1-0.1,0.2-0.1c0,0.1,0,0.2-0.1,0.3c-0.1,0.1-0.2,0.2-0.3,0.3c-0.3,0.2-0.8,0.1-1-0.2
				c-0.2-0.3-0.1-0.7,0.3-0.9c0.2-0.1,0.5-0.1,0.8,0C42,48.8,42,48.9,41.9,48.9" />
        <path class="st13" d="M48,46.3c0,0-0.1,0-0.1,0c0,0,0-0.1,0-0.1c0,0,0.1,0,0.1,0C48,46.2,48,46.3,48,46.3 M47.9,46.2
				c0,0-0.1,0.1,0,0.1c0,0,0.1,0,0.1,0c0,0,0.1-0.1,0-0.1C48,46.2,47.9,46.2,47.9,46.2 M48,46.2C48,46.2,48,46.2,48,46.2
				C48,46.2,48,46.2,48,46.2L48,46.2C48,46.3,48,46.3,48,46.2C47.9,46.3,47.9,46.3,48,46.2L48,46.2L48,46.2
				C47.9,46.3,47.9,46.2,48,46.2L48,46.2C47.9,46.2,47.9,46.2,48,46.2C47.9,46.2,47.9,46.2,48,46.2C47.9,46.2,47.9,46.2,48,46.2
				L48,46.2L48,46.2C47.9,46.3,47.9,46.3,48,46.2L48,46.2L48,46.2C47.9,46.2,47.9,46.2,48,46.2L48,46.2C47.9,46.2,48,46.2,48,46.2
				C48,46.2,48,46.2,48,46.2" />
        <path class="st13" d="M45.9,46.1l0.6,1c0.1,0.1,0.2,0.1,0.3,0.1l-0.6-1C46.1,46.1,46,46.1,45.9,46.1" />
      </g>
    </g>
    <g>
      <g>
        <path class="st13" d="M18.1,62.8c-4,0-7.7-1.6-10.5-4.4s-4.4-6.6-4.4-10.5C3.2,39.7,9.9,33,18.1,33C26.3,33,33,39.7,33,47.9
				C33,56.2,26.3,62.8,18.1,62.8L18.1,62.8z" />
        <path class="st27" d="M18.1,33.6C18.1,33.6,18.1,33.6,18.1,33.6c7.9,0,14.3,6.4,14.3,14.3c0,7.9-6.4,14.3-14.3,14.3c0,0,0,0,0,0
				c-7.9,0-14.3-6.4-14.3-14.3C3.8,40,10.2,33.6,18.1,33.6 M18.1,32.4L18.1,32.4L18.1,32.4c-8.6,0-15.5,7-15.5,15.5
				c0,4.2,1.6,8.1,4.5,11c2.9,2.9,6.8,4.6,11,4.6c8.6,0,15.5-7,15.5-15.5c0-4.2-1.6-8.1-4.5-11C26.2,34,22.3,32.4,18.1,32.4
				L18.1,32.4z" />
      </g>
      <g>
        <path class="st15" d="M26.6,46c0.3,1.4,0.3,2.7,0,4.1c-0.8,3.2-3.3,5.7-6.5,6.4c-3.2,0.8-6.5-0.3-8.7-2.8l1.5-1.3L8.2,52l0,0l0,0
				l0,0l0,0l-0.4,4.7l1.6-1.4l-0.1,0.1c2.8,3.3,7.2,4.7,11.4,3.7c4.2-1,7.5-4.3,8.5-8.5c0.4-1.7,0.4-3.6,0-5.4L26.6,46z" />
        <g>
          <path class="st2" d="M26.9,40.5c-2.8-3.3-7.2-4.7-11.4-3.7c-4.2,1-7.5,4.2-8.5,8.5c-0.4,1.7-0.4,3.6,0,5.4L9.6,50
					c-0.3-1.4-0.3-2.7,0-4.1c0.8-3.2,3.3-5.7,6.5-6.4c3.2-0.8,6.5,0.3,8.7,2.8L26.9,40.5z" />
          <polygon class="st2" points="28.4,39.2 25.8,41.4 23.2,43.6 28,44 28,44 				" />
        </g>
      </g>
    </g>
  </g>
</svg>